<?xml version="1.0" encoding="UTF-8"?>
<svg width="1200pt" height="1200pt" version="1.1" viewBox="0 0 1200 1200" xmlns="http://www.w3.org/2000/svg">
 <path d="m955.77 687.18c19.059-8.4688-15.531-78.352-53.648-33.176-31.766 37.41-11.293 83.293 26.117 104.47 77.648 45.176 163.77-10.59 162.35-98.117-0.70703-45.176-22.59-87.531-57.883-115.06-50.824-40.941-120.71-6.3516-168.71 21.883-72.707 42.352-136.94 90.352-225.88 78.352-56.469-7.7656-124.23-48-120-112.23 4.9414-67.059 79.059-38.117 98.117 3.5312 25.41 55.059-12 104.47-63.531 124.94-52.941 21.176-109.41-6.3516-140.47-51.531-12-17.648-12-37.41 0.70703-54.352 9.8828-13.41 29.648-17.648 39.531-2.1172 24 37.41 16.941 98.117-30.352 112.94-47.293 14.824-103.06-36.707-136.94-62.824-26.824-20.469-55.766-39.531-88.941-48-26.117-6.3516-45.883 7.7656-52.234 31.766-2.1172 8.4688-2.1172 17.648-1.4102 26.117 1.4102 28.234 26.117 16.941 38.824 17.648-12-0.70703-8.4688-19.059 2.8242-18.352 19.059 1.4102 23.293 16.234 13.41 30.352-14.117 19.766-40.941 25.41-59.293 8.4688-33.883-31.766-13.41-98.117 25.41-114.35 48-19.766 109.41 31.766 144 59.293 23.293 18.352 47.293 36.707 75.531 48 40.941 16.941 70.59-15.531 64.941-56.469-0.70703-2.8242-7.0586-36.707-21.176-22.59-12 12.707-2.8242 27.531 4.2344 38.824 9.8828 14.824 26.117 26.824 41.648 35.293 38.117 21.883 86.824 5.6484 115.77-24 14.117-14.824 19.766-33.883 18.352-54.352-2.1172-23.293-44.469-79.059-67.059-40.941-31.766 53.648 52.941 93.176 89.648 103.06 100.94 26.824 182.12-55.766 265.41-96 72-35.293 148.94-22.59 190.59 50.824 34.59 61.41 29.648 144.71-28.941 189.18-47.293 36-128.47 25.41-167.29-19.059-20.469-23.293-25.41-50.824-16.234-80.469 7.0586-22.59 26.824-50.824 53.648-49.41 34.59 2.1172 76.941 61.41 33.176 81.176-7.7734 7.0547-13.418-8.4766-4.2422-12.711"/>
</svg>
