<svg width="88" height="46" viewBox="0 0 88 46" fill="none" xmlns="http://www.w3.org/2000/svg">
<path d="M10.4985 22.3921C9.93832 22.5602 9.35015 22.7002 8.73396 22.8123C8.11778 22.9355 7.47358 22.9971 6.80138 22.9971C5.82669 22.9971 4.97523 22.8515 4.24702 22.5602C3.53 22.2577 2.93062 21.8488 2.44888 21.3334C1.97834 20.8181 1.62543 20.2187 1.39016 19.5353C1.15489 18.8519 1.03725 18.1293 1.03725 17.3674C1.03725 16.5608 1.16049 15.8102 1.40696 15.1155C1.66464 14.4209 2.03995 13.816 2.5329 13.3006C3.02585 12.7852 3.63643 12.3819 4.36465 12.0906C5.09287 11.7881 5.93872 11.6369 6.90221 11.6369C7.11508 11.6369 7.36155 11.6481 7.64163 11.6705C7.93292 11.6929 8.23541 11.7321 8.54911 11.7881C8.8628 11.8442 9.1821 11.9226 9.50699 12.0234C9.8431 12.113 10.1624 12.2307 10.4649 12.3763L10.4985 12.5276L10.2128 14.3593H9.45658L9.38936 14.3089C9.33334 13.928 9.10367 13.6199 8.70035 13.3846C8.30824 13.1382 7.68085 13.0149 6.81819 13.0149C6.28043 13.0149 5.80428 13.0653 5.38976 13.1662C4.98644 13.2558 4.61113 13.435 4.26382 13.7039C4.01735 13.8944 3.81569 14.124 3.65884 14.3929C3.50199 14.6506 3.37876 14.9363 3.28913 15.25C3.1995 15.5637 3.13788 15.8942 3.10427 16.2415C3.07066 16.5888 3.05386 16.9361 3.05386 17.2834C3.05386 17.9668 3.14349 18.5774 3.32274 19.1151C3.5132 19.6529 3.77087 20.1066 4.09577 20.4764C4.42067 20.8461 4.80158 21.1318 5.23851 21.3334C5.68665 21.5239 6.16839 21.6191 6.68375 21.6191C6.84059 21.6191 7.00865 21.6135 7.1879 21.6023C7.37836 21.5799 7.56321 21.5519 7.74247 21.5183C7.92172 21.4847 8.07857 21.4454 8.21301 21.4006C8.35865 21.3558 8.45948 21.311 8.5155 21.2662C8.58272 21.2326 8.62193 21.1878 8.63313 21.1318C8.64434 21.0757 8.64994 21.0029 8.64994 20.9133C8.64994 20.8349 8.64994 20.706 8.64994 20.5268C8.64994 20.3475 8.63873 20.2075 8.61633 20.1066C8.59392 19.8154 8.5323 19.5969 8.43147 19.4512C8.34185 19.2944 8.26342 19.1936 8.1962 19.1488C8.09537 19.0591 7.94413 19.0087 7.74247 18.9975C7.5408 18.9863 7.35035 18.9807 7.17109 18.9807L7.08707 18.9135L7.03665 18.2077L7.07026 18.1405C7.14869 18.1405 7.27192 18.1461 7.43997 18.1573C7.61923 18.1685 7.79848 18.1797 7.97774 18.1909C8.16819 18.2021 8.34745 18.2133 8.5155 18.2245C8.69475 18.2357 8.82359 18.2413 8.90201 18.2413H10.0784C10.1568 18.2413 10.2632 18.2357 10.3977 18.2245C10.5321 18.2133 10.6721 18.2021 10.8178 18.1909C10.9634 18.1797 11.1035 18.1685 11.2379 18.1573C11.3724 18.1461 11.4788 18.1405 11.5572 18.1405L11.5908 18.2077L11.5572 18.9471L11.4732 19.0143C11.1483 19.0143 10.9186 19.1095 10.7842 19.3C10.6609 19.4793 10.5881 19.7481 10.5657 20.1066C10.5433 20.3307 10.5265 20.5716 10.5153 20.8293C10.5153 21.0757 10.5153 21.2606 10.5153 21.3838C10.5153 21.5519 10.5153 21.7367 10.5153 21.9384C10.5265 22.1289 10.5433 22.2521 10.5657 22.3081L10.4985 22.3921ZM18.2649 11.6369C19.1276 11.6369 19.895 11.7881 20.5672 12.0906C21.2394 12.3931 21.8052 12.8077 22.2645 13.3342C22.7239 13.8496 23.0712 14.4489 23.3064 15.1324C23.5529 15.8158 23.6761 16.5328 23.6761 17.2834C23.6761 18.0228 23.5585 18.7398 23.3232 19.4344C23.088 20.1178 22.7351 20.7228 22.2645 21.2494C21.8052 21.7759 21.2282 22.2017 20.5336 22.5266C19.8502 22.8403 19.0548 22.9971 18.1473 22.9971C17.2734 22.9971 16.506 22.8459 15.845 22.5434C15.184 22.2409 14.6294 21.8376 14.1813 21.3334C13.7444 20.8181 13.4139 20.2243 13.1898 19.5521C12.9657 18.8687 12.8537 18.1517 12.8537 17.401C12.8537 16.6056 12.9769 15.8606 13.2234 15.166C13.4699 14.4601 13.8228 13.8496 14.2821 13.3342C14.7415 12.8077 15.3072 12.3931 15.9794 12.0906C16.6516 11.7881 17.4135 11.6369 18.2649 11.6369ZM18.2481 21.6023C18.7971 21.6023 19.2844 21.4903 19.7101 21.2662C20.1471 21.0309 20.5112 20.7228 20.8025 20.3419C21.0938 19.9498 21.3178 19.4961 21.4747 18.9807C21.6315 18.4541 21.7099 17.894 21.7099 17.3002C21.7099 16.6952 21.6259 16.1351 21.4579 15.6197C21.301 15.0931 21.0658 14.6394 20.7521 14.2585C20.4496 13.8776 20.0799 13.5807 19.6429 13.3678C19.206 13.1438 18.7131 13.0317 18.1641 13.0317C17.6263 13.0317 17.1502 13.1382 16.7357 13.351C16.3211 13.5639 15.9738 13.8608 15.6937 14.2417C15.4137 14.6226 15.2008 15.0763 15.0552 15.6029C14.9095 16.1182 14.8367 16.6784 14.8367 17.2834C14.8367 17.9556 14.9207 18.5606 15.0888 19.0983C15.2568 19.6249 15.4921 20.073 15.7946 20.4427C16.0971 20.8125 16.4556 21.0981 16.8701 21.2998C17.2846 21.5015 17.744 21.6023 18.2481 21.6023ZM30.6554 11.6369C31.518 11.6369 32.2854 11.7881 32.9576 12.0906C33.6298 12.3931 34.1956 12.8077 34.655 13.3342C35.1143 13.8496 35.4616 14.4489 35.6969 15.1324C35.9433 15.8158 36.0666 16.5328 36.0666 17.2834C36.0666 18.0228 35.9489 18.7398 35.7137 19.4344C35.4784 20.1178 35.1255 20.7228 34.655 21.2494C34.1956 21.7759 33.6186 22.2017 32.924 22.5266C32.2406 22.8403 31.4452 22.9971 30.5377 22.9971C29.6639 22.9971 28.8964 22.8459 28.2354 22.5434C27.5744 22.2409 27.0199 21.8376 26.5717 21.3334C26.1348 20.8181 25.8043 20.2243 25.5802 19.5521C25.3562 18.8687 25.2441 18.1517 25.2441 17.401C25.2441 16.6056 25.3674 15.8606 25.6138 15.166C25.8603 14.4601 26.2132 13.8496 26.6726 13.3342C27.1319 12.8077 27.6977 12.3931 28.3699 12.0906C29.0421 11.7881 29.8039 11.6369 30.6554 11.6369ZM30.6385 21.6023C31.1875 21.6023 31.6749 21.4903 32.1006 21.2662C32.5375 21.0309 32.9016 20.7228 33.1929 20.3419C33.4842 19.9498 33.7083 19.4961 33.8651 18.9807C34.022 18.4541 34.1004 17.894 34.1004 17.3002C34.1004 16.6952 34.0164 16.1351 33.8483 15.6197C33.6915 15.0931 33.4562 14.6394 33.1425 14.2585C32.84 13.8776 32.4703 13.5807 32.0334 13.3678C31.5964 13.1438 31.1035 13.0317 30.5545 13.0317C30.0168 13.0317 29.5406 13.1382 29.1261 13.351C28.7116 13.5639 28.3643 13.8608 28.0842 14.2417C27.8041 14.6226 27.5912 15.0763 27.4456 15.6029C27.2999 16.1182 27.2271 16.6784 27.2271 17.2834C27.2271 17.9556 27.3111 18.5606 27.4792 19.0983C27.6473 19.6249 27.8825 20.073 28.185 20.4427C28.4875 20.8125 28.846 21.0981 29.2605 21.2998C29.6751 21.5015 30.1344 21.6023 30.6385 21.6023ZM38.8309 13.6199C38.8085 13.3398 38.7581 13.1269 38.6796 12.9813C38.6012 12.8357 38.5116 12.7292 38.4107 12.662C38.3099 12.5724 38.2035 12.522 38.0915 12.5108C37.9906 12.4996 37.8002 12.494 37.5201 12.494L37.4361 12.4267L37.3856 11.7881L37.4193 11.7209C37.4977 11.7209 37.6097 11.7265 37.7554 11.7377C37.901 11.7489 38.0578 11.7601 38.2259 11.7713C38.3939 11.7825 38.5564 11.7937 38.7132 11.805C38.8813 11.8162 39.0269 11.8218 39.1502 11.8218H40.7803C40.9147 11.8218 41.0828 11.8218 41.2844 11.8218C41.4973 11.8106 41.7101 11.7994 41.923 11.7881C42.1359 11.7769 42.3375 11.7713 42.528 11.7713C42.7296 11.7601 42.8977 11.7545 43.0321 11.7545C43.906 11.7545 44.6846 11.9058 45.368 12.2083C46.0626 12.4996 46.6452 12.8973 47.1158 13.4014C47.5863 13.9056 47.9448 14.4938 48.1913 15.166C48.449 15.8382 48.5778 16.5496 48.5778 17.3002C48.5778 18.0396 48.4546 18.7454 48.2081 19.4176C47.9728 20.0786 47.6199 20.6668 47.1494 21.1822C46.6788 21.6863 46.0907 22.0896 45.3848 22.3921C44.679 22.6946 43.8612 22.8459 42.9313 22.8459C42.8417 22.8459 42.7016 22.8403 42.5112 22.8291C42.3319 22.8291 42.1359 22.8291 41.923 22.8291C41.7213 22.8291 41.5197 22.8235 41.318 22.8123C41.1276 22.8123 40.9763 22.8123 40.8643 22.8123H39.3014C39.223 22.8123 39.0942 22.8179 38.9149 22.8291C38.7356 22.8403 38.5508 22.8515 38.3603 22.8627C38.1699 22.8739 37.985 22.8851 37.8058 22.8963C37.6265 22.9075 37.4977 22.9131 37.4193 22.9131L37.3856 22.8459L37.4361 22.2073L37.5201 22.1401C37.6545 22.1401 37.8114 22.1345 37.9906 22.1232C38.1699 22.1008 38.3099 22.056 38.4107 21.9888C38.5004 21.9216 38.5844 21.8152 38.6628 21.6695C38.7412 21.5239 38.7973 21.3054 38.8309 21.0141C38.8309 20.9357 38.8309 20.8461 38.8309 20.7452C38.8421 20.6332 38.8477 20.4988 38.8477 20.3419C38.8589 20.1851 38.8645 19.9946 38.8645 19.7705C38.8645 19.5465 38.8645 19.2664 38.8645 18.9303V16.1911C38.8645 16.079 38.8645 15.911 38.8645 15.6869C38.8645 15.4516 38.8645 15.2052 38.8645 14.9475C38.8645 14.6898 38.8589 14.4377 38.8477 14.1913C38.8477 13.9448 38.8421 13.7543 38.8309 13.6199ZM42.3767 21.5015C43.0489 21.5015 43.6427 21.395 44.1581 21.1822C44.6734 20.9581 45.1048 20.6556 45.4521 20.2747C45.8106 19.8938 46.0795 19.4512 46.2587 18.9471C46.4492 18.4317 46.5444 17.8828 46.5444 17.3002C46.5444 16.6952 46.4492 16.1407 46.2587 15.6365C46.0682 15.1211 45.7882 14.6786 45.4185 14.3089C45.0599 13.9392 44.6174 13.6535 44.0909 13.4518C43.5643 13.239 42.9649 13.1326 42.2927 13.1326H40.8139C40.7915 13.4574 40.7747 13.7319 40.7635 13.956C40.7635 14.1689 40.7579 14.3873 40.7467 14.6114C40.7354 14.8355 40.7298 15.0819 40.7298 15.3508C40.7298 15.6085 40.7298 15.939 40.7298 16.3423V18.4261C40.7298 19.0983 40.7298 19.6249 40.7298 20.0058C40.741 20.3755 40.7579 20.6556 40.7803 20.8461C40.8139 21.1374 40.8867 21.3222 40.9987 21.4006C41.1108 21.4679 41.3124 21.5015 41.6037 21.5015H42.3767ZM55.5042 13.6199C55.4818 13.4294 55.437 13.2446 55.3698 13.0653C55.3138 12.8749 55.2241 12.7348 55.1009 12.6452C55.0113 12.5892 54.8993 12.55 54.7648 12.5276C54.6304 12.5052 54.4455 12.494 54.2102 12.494L54.1262 12.4267L54.0758 11.7881L54.1094 11.7209C54.2102 11.7321 54.3447 11.7433 54.5127 11.7545C54.692 11.7657 54.8712 11.7769 55.0505 11.7881C55.241 11.7994 55.4202 11.8106 55.5883 11.8218C55.7563 11.8218 55.8907 11.8218 55.9916 11.8218H56.9831C57.0839 11.8218 57.2127 11.8218 57.3696 11.8218C57.5376 11.8106 57.7113 11.7994 57.8905 11.7881C58.081 11.7769 58.2603 11.7657 58.4283 11.7545C58.6076 11.7433 58.7532 11.7321 58.8652 11.7209L58.8989 11.7881L58.8484 12.4267L58.7812 12.494C58.5011 12.494 58.2939 12.5108 58.1594 12.5444C58.0362 12.5668 57.9354 12.606 57.8569 12.662C57.6217 12.8189 57.4872 13.1382 57.4536 13.6199C57.4424 13.7319 57.4312 13.8496 57.42 13.9728C57.42 14.0848 57.42 14.2361 57.42 14.4265C57.42 14.6058 57.42 14.8355 57.42 15.1155C57.42 15.3956 57.42 15.7485 57.42 16.1743V18.4261C57.42 18.8631 57.42 19.2216 57.42 19.5017C57.42 19.7705 57.42 20.0002 57.42 20.1907C57.4312 20.3699 57.4368 20.5324 57.4368 20.678C57.448 20.8125 57.4648 20.9749 57.4872 21.1654C57.4984 21.3894 57.6273 21.5015 57.8737 21.5015H59.4366C59.8063 21.5015 60.0976 21.4959 60.3105 21.4847C60.5345 21.4623 60.7082 21.4174 60.8314 21.3502C60.9547 21.2718 61.0499 21.1654 61.1171 21.0309C61.1843 20.8965 61.246 20.7116 61.302 20.4764L61.3524 20.4091H62.1254L61.8229 22.7114L61.6885 22.8795C61.5989 22.8683 61.4588 22.8571 61.2684 22.8459C61.0779 22.8459 60.8762 22.8403 60.6634 22.8291C60.4505 22.8291 60.2377 22.8235 60.0248 22.8123C59.8231 22.8123 59.6663 22.8123 59.5542 22.8123H55.9916C55.9132 22.8123 55.7843 22.8123 55.6051 22.8123C55.437 22.8235 55.2578 22.8347 55.0673 22.8459C54.8768 22.8571 54.692 22.8683 54.5127 22.8795C54.3335 22.8907 54.199 22.9019 54.1094 22.9131L54.0758 22.8459L54.1262 22.2073L54.2102 22.1401C54.636 22.1401 54.9273 22.0784 55.0841 21.9552C55.1737 21.8768 55.2578 21.7535 55.3362 21.5855C55.4258 21.4174 55.4818 21.2214 55.5042 20.9973C55.5154 20.8853 55.521 20.734 55.521 20.5436C55.5322 20.3419 55.5378 20.1347 55.5378 19.9218C55.549 19.7089 55.5546 19.5129 55.5546 19.3336C55.5546 19.1432 55.5546 19.0087 55.5546 18.9303V16.1911C55.5546 15.5749 55.549 15.0371 55.5378 14.5778C55.5378 14.1072 55.5266 13.7879 55.5042 13.6199ZM67.7937 11.7881L67.7433 12.4267L67.6761 12.494C67.4968 12.494 67.3288 12.5052 67.1719 12.5276C67.0151 12.5388 66.8806 12.5836 66.7686 12.662C66.6678 12.7404 66.5725 12.8413 66.4829 12.9645C66.4045 13.0877 66.3653 13.3062 66.3653 13.6199C66.3541 13.7767 66.3429 13.9224 66.3317 14.0568C66.3317 14.1913 66.3261 14.3481 66.3149 14.5274C66.3149 14.7066 66.3149 14.9251 66.3149 15.1828C66.3149 15.4404 66.3149 15.7709 66.3149 16.1743V18.5942C66.3149 18.9975 66.3149 19.328 66.3149 19.5857C66.3149 19.8322 66.3149 20.0394 66.3149 20.2075C66.3261 20.3755 66.3317 20.5212 66.3317 20.6444C66.3429 20.7564 66.3541 20.8797 66.3653 21.0141C66.3877 21.3278 66.4381 21.5463 66.5165 21.6695C66.5949 21.7927 66.679 21.8936 66.7686 21.972C66.8694 22.0504 66.9983 22.1008 67.1551 22.1232C67.3232 22.1345 67.4968 22.1401 67.6761 22.1401L67.7433 22.2073L67.7937 22.8459L67.7601 22.9131C67.6817 22.9131 67.5528 22.9075 67.3736 22.8963C67.1943 22.8851 67.0095 22.8739 66.819 22.8627C66.6286 22.8515 66.4437 22.8403 66.2644 22.8291C66.0852 22.8179 65.9564 22.8123 65.8779 22.8123H64.8864C64.808 22.8123 64.6792 22.8179 64.4999 22.8291C64.3207 22.8403 64.1358 22.8515 63.9454 22.8627C63.7549 22.8739 63.57 22.8851 63.3908 22.8963C63.2115 22.9075 63.0827 22.9131 63.0043 22.9131L62.9707 22.8459L63.0211 22.2073L63.1051 22.1401C63.2844 22.1401 63.4524 22.1345 63.6093 22.1232C63.7773 22.1008 63.9061 22.0504 63.9958 21.972C64.0854 21.8936 64.1638 21.7927 64.231 21.6695C64.3095 21.5463 64.3711 21.3278 64.4159 21.0141C64.4159 20.9357 64.4159 20.8461 64.4159 20.7452C64.4271 20.6332 64.4327 20.4988 64.4327 20.3419C64.4439 20.1851 64.4495 19.9946 64.4495 19.7705C64.4495 19.5465 64.4495 19.2664 64.4495 18.9303V16.1911C64.4495 15.799 64.4495 15.4685 64.4495 15.1996C64.4495 14.9307 64.4439 14.701 64.4327 14.5106C64.4327 14.3201 64.4271 14.1577 64.4159 14.0232C64.4159 13.8888 64.4103 13.7543 64.3991 13.6199C64.3767 13.3286 64.3263 13.1157 64.2478 12.9813C64.1694 12.8469 64.0854 12.7404 63.9958 12.662C63.8949 12.5836 63.7661 12.5388 63.6093 12.5276C63.4524 12.5052 63.2844 12.494 63.1051 12.494L63.0211 12.4267L62.9707 11.7881L63.0043 11.7209C63.0827 11.7209 63.2115 11.7265 63.3908 11.7377C63.57 11.7489 63.7549 11.7601 63.9454 11.7713C64.1358 11.7825 64.3207 11.7937 64.4999 11.805C64.6792 11.8162 64.808 11.8218 64.8864 11.8218H65.8779C65.9564 11.8218 66.0852 11.8162 66.2644 11.805C66.4437 11.7937 66.6286 11.7825 66.819 11.7713C67.0095 11.7601 67.1943 11.7489 67.3736 11.7377C67.5528 11.7265 67.6817 11.7209 67.7601 11.7209L67.7937 11.7881ZM71.1915 14.3593C71.1915 14.6506 71.2699 14.8971 71.4268 15.0987C71.5836 15.3004 71.7965 15.4797 72.0653 15.6365C72.3342 15.7821 72.6479 15.9222 73.0064 16.0566C73.3649 16.1911 73.7458 16.3311 74.1492 16.4768C74.5525 16.6336 74.939 16.8017 75.3087 16.9809C75.6784 17.149 76.0033 17.3618 76.2834 17.6195C76.5747 17.866 76.8044 18.1629 76.9724 18.5102C77.1517 18.8463 77.2413 19.2552 77.2413 19.7369C77.2413 20.2299 77.1461 20.678 76.9556 21.0813C76.7652 21.4735 76.4907 21.8152 76.1322 22.1064C75.7849 22.3865 75.3535 22.605 74.8382 22.7618C74.334 22.9187 73.7683 22.9971 73.1409 22.9971C72.4687 22.9971 71.7965 22.9131 71.1243 22.745C70.4521 22.577 69.8527 22.3473 69.3261 22.056L69.2589 21.8376L69.6454 19.5857H70.4016L70.4857 19.6865C70.5529 20.4595 70.8106 21.0085 71.2587 21.3334C71.718 21.6583 72.3398 21.8208 73.1241 21.8208C73.8971 21.8208 74.4573 21.6863 74.8046 21.4174C75.1519 21.1374 75.3255 20.7284 75.3255 20.1907C75.3255 19.8434 75.2527 19.5577 75.1071 19.3336C74.9614 19.1095 74.7541 18.9191 74.4853 18.7622C74.2276 18.6054 73.9139 18.4654 73.5442 18.3421C73.1745 18.2189 72.7656 18.0732 72.3174 17.9052C71.9141 17.7595 71.5388 17.6027 71.1915 17.4346C70.8442 17.2554 70.5417 17.0481 70.284 16.8129C70.0375 16.5664 69.8415 16.2751 69.6958 15.939C69.5502 15.6029 69.4774 15.1996 69.4774 14.729C69.4774 13.7431 69.7967 12.9813 70.4353 12.4435C71.085 11.9058 72.0709 11.6369 73.3929 11.6369C73.9979 11.6369 74.5637 11.7097 75.0902 11.8554C75.6168 11.9898 76.0593 12.1523 76.4178 12.3427L76.4851 12.5276L76.2162 14.4433H75.4095L75.3255 14.3593C75.2583 13.8888 75.0566 13.5247 74.7205 13.267C74.3844 13.0093 73.9139 12.8805 73.3089 12.8805C72.6367 12.8805 72.1158 13.0149 71.746 13.2838C71.3763 13.5527 71.1915 13.9112 71.1915 14.3593ZM85.4349 22.9131C85.3565 22.9131 85.2333 22.9075 85.0652 22.8963C84.8972 22.8851 84.7179 22.8739 84.5275 22.8627C84.337 22.8515 84.1578 22.8403 83.9897 22.8291C83.8217 22.8179 83.6984 22.8123 83.62 22.8123H81.9899C81.9115 22.8123 81.7882 22.8179 81.6202 22.8291C81.4521 22.8403 81.2729 22.8515 81.0824 22.8627C80.9032 22.8739 80.7295 22.8851 80.5615 22.8963C80.3934 22.9075 80.2702 22.9131 80.1918 22.9131L80.1582 22.8459L80.2086 22.2073L80.2926 22.1401C80.4606 22.1401 80.6567 22.1345 80.8808 22.1232C81.116 22.112 81.2841 22.0616 81.3849 21.972C81.4745 21.8936 81.5642 21.7927 81.6538 21.6695C81.7434 21.5463 81.805 21.3278 81.8387 21.0141C81.8499 20.9357 81.8555 20.8461 81.8555 20.7452C81.8667 20.6332 81.8723 20.4988 81.8723 20.3419C81.8835 20.1851 81.8891 19.9946 81.8891 19.7705C81.8891 19.5465 81.8891 19.2664 81.8891 18.9303V15.855C81.8891 15.2388 81.8835 14.6898 81.8723 14.2081C81.8611 13.7263 81.8499 13.3678 81.8387 13.1326H81.6538C81.2281 13.1326 80.8752 13.1382 80.5951 13.1494C80.315 13.1494 80.0909 13.1606 79.9229 13.183C79.7548 13.1942 79.626 13.211 79.5364 13.2334C79.4579 13.2558 79.4019 13.2838 79.3683 13.3174C79.2451 13.3734 79.1442 13.4631 79.0658 13.5863C78.9874 13.7095 78.937 13.8552 78.9146 14.0232L78.8474 14.0904H78.1247L78.2424 11.8386L78.3096 11.6873L78.4104 11.6369C78.5001 11.6705 78.6961 11.7041 78.9986 11.7377C79.3011 11.7601 79.6316 11.7769 79.9901 11.7881C80.3486 11.7994 80.6903 11.8106 81.0152 11.8218C81.3513 11.8218 81.5922 11.8218 81.7378 11.8218H83.8553C84.0009 11.8218 84.2362 11.8218 84.5611 11.8218C84.8972 11.8106 85.2445 11.7994 85.603 11.7881C85.9615 11.7769 86.292 11.7601 86.5945 11.7377C86.897 11.7041 87.093 11.6705 87.1827 11.6369L87.2835 11.6873L87.3507 11.8386L87.4852 14.0904H86.7457L86.6785 14.0232C86.6561 13.8552 86.6057 13.7095 86.5273 13.5863C86.4488 13.4631 86.348 13.3734 86.2248 13.3174C86.1912 13.2726 86.1295 13.239 86.0399 13.2166C85.9615 13.183 85.8383 13.1606 85.6702 13.1494C85.5022 13.1382 85.2781 13.1326 84.998 13.1326C84.7291 13.1326 84.3818 13.1326 83.9561 13.1326H83.7712C83.76 13.4014 83.7488 13.7599 83.7376 14.2081C83.7376 14.6562 83.7376 15.1996 83.7376 15.8382V18.5942C83.7376 18.9975 83.7376 19.328 83.7376 19.5857C83.7376 19.8322 83.7376 20.0394 83.7376 20.2075C83.7488 20.3755 83.7544 20.5212 83.7544 20.6444C83.7656 20.7564 83.7768 20.8797 83.788 21.0141C83.8104 21.339 83.8721 21.5631 83.9729 21.6863C84.0737 21.8096 84.169 21.9048 84.2586 21.972C84.3034 22.0168 84.365 22.0504 84.4434 22.0728C84.5331 22.0952 84.6283 22.112 84.7291 22.1232C84.83 22.1345 84.9308 22.1401 85.0316 22.1401C85.1436 22.1401 85.2445 22.1401 85.3341 22.1401L85.4181 22.2073L85.4685 22.8459L85.4349 22.9131Z" fill="#D9BD80"/>
<path d="M39.676 1.86445H38.1651V6H37.5366V1.86445H36.0224V1.33367H39.676V1.86445ZM46.1029 1.33367V6H45.4711V3.87687H42.954V6H42.3223V1.33367H42.954V3.41447H45.4711V1.33367H46.1029ZM52.1282 5.4855L52.125 6H49.2496V1.33367H52.125V1.84817H49.8813V3.39819H51.6984V3.89315H49.8813V5.4855H52.1282Z" fill="#D9BD80"/>
<path d="M45.415 32.4819C45.415 31.5717 45.6498 30.812 45.7714 30.4796C45.6577 30.4038 45.459 30.3085 45.179 30.3085C44.7784 30.3085 44.2704 30.6702 44.1075 30.8103C44.0631 30.849 44.005 30.8725 43.9415 30.8725C43.8779 30.8725 43.8199 30.849 43.7755 30.8103C43.6125 30.6701 43.1046 30.3085 42.704 30.3085C42.4244 30.3085 42.2258 30.4036 42.1116 30.4797C42.2332 30.8122 42.4679 31.5719 42.4679 32.4819C42.4679 33.3921 42.2331 34.1519 42.1115 34.4842C42.2253 34.56 42.424 34.6554 42.704 34.6554C43.0492 34.6554 43.4737 34.3869 43.6889 34.223V32.4819C43.6889 32.3424 43.802 32.2293 43.9415 32.2293C44.081 32.2293 44.194 32.3424 44.194 32.4819V34.223C44.4092 34.3869 44.8337 34.6554 45.179 34.6554C45.4586 34.6554 45.6571 34.5603 45.7714 34.4841C45.6498 34.1515 45.415 33.392 45.415 32.4819Z" fill="#D9BD80"/>
<path d="M39.5386 37.4108L36.8956 41.8263L39.6687 45.7959L42.3869 35.1293C42.1608 35.0848 41.9825 34.9994 41.8554 34.9181C41.5021 35.3727 40.6075 36.4735 39.5386 37.4108Z" fill="#D9BD80"/>
<path d="M28.5349 29.7712V35.1839H33.5204C33.3541 34.2343 33.3081 33.264 33.3081 32.4818C33.3081 31.6544 33.4663 30.6675 33.797 29.7712H28.5349Z" fill="#D9BD80"/>
<path d="M41.5891 34.4346C41.6175 34.3652 41.7015 34.1485 41.7828 33.8359L39.001 34.6131C38.9783 34.6194 38.9554 34.6224 38.9329 34.6224C38.8224 34.6224 38.721 34.5494 38.6897 34.4377C38.6522 34.3034 38.7307 34.1641 38.865 34.1265L41.8986 33.279C41.9253 33.1088 41.9458 32.926 41.9558 32.7343H38.6327C37.8943 32.7343 37.1654 33.0878 36.5802 33.7294C36.5304 33.784 36.4621 33.8118 36.3935 33.8118C36.3328 33.8118 36.2718 33.79 36.2234 33.7459C36.1204 33.6519 36.113 33.4921 36.207 33.3891C36.8891 32.6411 37.7505 32.2292 38.6327 32.2292H41.9558C41.9458 32.0376 41.9253 31.8547 41.8986 31.6846L38.865 30.8371C38.7307 30.7996 38.6522 30.6602 38.6897 30.5258C38.7273 30.3915 38.8666 30.313 39.001 30.3506L41.7828 31.1277C41.709 30.8439 41.633 30.6394 41.5983 30.552C41.2066 30.202 38.101 27.484 36.4151 27.7088C34.6401 27.9461 33.8132 30.6971 33.8132 32.4817C33.8132 34.1764 34.0609 38.149 36.355 38.4357C38.0537 38.6486 40.6903 35.6427 41.5891 34.4346Z" fill="#D9BD80"/>
<path d="M54.086 29.7712C54.4166 30.6675 54.5749 31.6544 54.5749 32.4818C54.5749 33.264 54.5289 34.2343 54.3626 35.1839H59.3481V29.7712H54.086Z" fill="#D9BD80"/>
<path d="M46.0276 34.918C45.9005 34.9992 45.7222 35.0847 45.496 35.1292L48.2143 45.7959L50.9874 41.8262L48.3444 37.4108C47.2755 36.4735 46.3809 35.3727 46.0276 34.918Z" fill="#D9BD80"/>
<path d="M51.4678 27.7089C49.7808 27.4833 46.6763 30.202 46.2846 30.5521C46.25 30.6393 46.1739 30.8439 46.1001 31.1278L48.882 30.3506C49.0161 30.3132 49.1556 30.3915 49.1932 30.5259C49.2308 30.6602 49.1523 30.7995 49.0179 30.8371L45.9843 31.6846C45.9576 31.8548 45.9372 32.0376 45.9271 32.2293H49.2503C50.1324 32.2293 50.9939 32.6411 51.6759 33.3891C51.7699 33.4922 51.7626 33.6519 51.6595 33.7459C51.6111 33.7901 51.5501 33.8118 51.4894 33.8118C51.4208 33.8118 51.3526 33.7841 51.3027 33.7294C50.7175 33.0877 49.9886 32.7344 49.2503 32.7344H45.9271C45.937 32.9262 45.9574 33.109 45.9839 33.2789L49.018 34.1265C49.1523 34.1641 49.2308 34.3034 49.1933 34.4378C49.1621 34.5494 49.0606 34.6225 48.9501 34.6225C48.9276 34.6225 48.9048 34.6194 48.882 34.6131L46.0996 33.8358C46.1809 34.1485 46.2652 34.3648 46.2938 34.4344C47.1924 35.6424 49.8305 38.649 51.528 38.4359C53.8221 38.1491 54.0698 34.1766 54.0698 32.4819C54.0698 30.6973 53.2428 27.9462 51.4678 27.7089Z" fill="#D9BD80"/>
</svg>
